<?xml version="1.0" encoding="UTF-8"?>
<svg width="802px" height="130px" viewBox="0 0 802 130" version="1.1" xmlns="http://www.w3.org/2000/svg" xmlns:xlink="http://www.w3.org/1999/xlink">
    <title>VGG-16-Visualization.drawio(6)</title>
    <g id="Page-3" stroke="none" stroke-width="1" fill="none" fill-rule="evenodd">
        <g id="Artboard" transform="translate(1.000000, -48.000000)">
            <g id="VGG-16-Visualization.drawio(6)" transform="translate(0.000000, 49.000000)">
                <g id="Group" transform="translate(658.858859, 57.285285)">
                    <polygon id="Path" stroke="#D79B00" fill="#FFE6CC" fill-rule="nonzero" points="0 0 25.2252252 0 29.4294294 4.2042042 29.4294294 10.2882883 4.2042042 10.2882883 0 6.08408408"></polygon>
                    <polygon id="Path" fill-opacity="0.05" fill="#000000" fill-rule="nonzero" points="0 0 25.2252252 0 29.4294294 4.2042042 4.2042042 4.2042042"></polygon>
                    <polygon id="Path" fill-opacity="0.1" fill="#000000" fill-rule="nonzero" points="0 0 4.2042042 4.2042042 4.2042042 10.2882883 0 6.08408408"></polygon>
                    <path d="M4.2042042,10.2882883 L4.2042042,4.2042042 L0,0 M4.2042042,4.2042042 L29.4294294,4.2042042" id="Shape" stroke="#D79B00"></path>
                </g>
                <g id="Group" transform="translate(569.969970, 44.522523)">
                    <polygon id="Path" stroke="#D79B00" fill="#FFE6CC" fill-rule="nonzero" points="0 0 6.00600601 0 18.018018 12.012012 18.018018 33.033033 12.012012 33.033033 0 21.021021"></polygon>
                    <polygon id="Path" fill-opacity="0.05" fill="#000000" fill-rule="nonzero" points="0 0 6.00600601 0 18.018018 12.012012 12.012012 12.012012"></polygon>
                    <polygon id="Path" fill-opacity="0.1" fill="#000000" fill-rule="nonzero" points="0 0 12.012012 12.012012 12.012012 33.033033 0 21.021021"></polygon>
                    <path d="M12.012012,33.033033 L12.012012,12.012012 L0,0 M12.012012,12.012012 L18.018018,12.012012" id="Shape" stroke="#D79B00"></path>
                </g>
                <g id="Group" transform="translate(562.162162, 44.372372)">
                    <polygon id="Path" stroke="#6C8EBF" fill="#DAE8FC" fill-rule="nonzero" points="0 0 6.00600601 0 18.018018 12.012012 18.018018 33.033033 12.012012 33.033033 0 21.021021"></polygon>
                    <polygon id="Path" fill-opacity="0.05" fill="#000000" fill-rule="nonzero" points="0 0 6.00600601 0 18.018018 12.012012 12.012012 12.012012"></polygon>
                    <polygon id="Path" fill-opacity="0.1" fill="#000000" fill-rule="nonzero" points="0 0 12.012012 12.012012 12.012012 33.033033 0 21.021021"></polygon>
                    <path d="M12.012012,33.033033 L12.012012,12.012012 L0,0 M12.012012,12.012012 L18.018018,12.012012" id="Shape" stroke="#6C8EBF"></path>
                </g>
                <g id="Group" transform="translate(539.939940, 44.372372)">
                    <polygon id="Path" stroke="#D79B00" fill="#FFE6CC" fill-rule="nonzero" points="0 0 6.00600601 0 18.018018 12.012012 18.018018 33.033033 12.012012 33.033033 0 21.021021"></polygon>
                    <polygon id="Path" fill-opacity="0.05" fill="#000000" fill-rule="nonzero" points="0 0 6.00600601 0 18.018018 12.012012 12.012012 12.012012"></polygon>
                    <polygon id="Path" fill-opacity="0.1" fill="#000000" fill-rule="nonzero" points="0 0 12.012012 12.012012 12.012012 33.033033 0 21.021021"></polygon>
                    <path d="M12.012012,33.033033 L12.012012,12.012012 L0,0 M12.012012,12.012012 L18.018018,12.012012" id="Shape" stroke="#D79B00"></path>
                </g>
                <g id="Group" transform="translate(532.132132, 44.222222)">
                    <polygon id="Path" stroke="#6C8EBF" fill="#DAE8FC" fill-rule="nonzero" points="0 0 6.00600601 0 18.018018 12.012012 18.018018 33.033033 12.012012 33.033033 0 21.021021"></polygon>
                    <polygon id="Path" fill-opacity="0.05" fill="#000000" fill-rule="nonzero" points="0 0 6.00600601 0 18.018018 12.012012 12.012012 12.012012"></polygon>
                    <polygon id="Path" fill-opacity="0.1" fill="#000000" fill-rule="nonzero" points="0 0 12.012012 12.012012 12.012012 33.033033 0 21.021021"></polygon>
                    <path d="M12.012012,33.033033 L12.012012,12.012012 L0,0 M12.012012,12.012012 L18.018018,12.012012" id="Shape" stroke="#6C8EBF"></path>
                </g>
                <g id="Group" transform="translate(294.894895, 23.687688)">
                    <polygon id="Path" stroke="#D79B00" fill="#FFE6CC" fill-rule="nonzero" points="0 -4.26752394e-15 6.00600601 -4.26752394e-15 18.018018 12.012012 18.018018 72.0720721 12.012012 72.0720721 0 60.0600601"></polygon>
                    <polygon id="Path" fill-opacity="0.05" fill="#000000" fill-rule="nonzero" points="0 -4.26752394e-15 6.00600601 -4.26752394e-15 18.018018 12.012012 12.012012 12.012012"></polygon>
                    <polygon id="Path" fill-opacity="0.1" fill="#000000" fill-rule="nonzero" points="0 -4.26752394e-15 12.012012 12.012012 12.012012 72.0720721 0 60.0600601"></polygon>
                    <path d="M12.012012,72.0720721 L12.012012,12.012012 L0,-4.26752394e-15 M12.012012,12.012012 L18.018018,12.012012" id="Shape" stroke="#D79B00"></path>
                </g>
                <g id="Group" transform="translate(287.087087, 23.687688)">
                    <polygon id="Path" stroke="#6C8EBF" fill="#DAE8FC" fill-rule="nonzero" points="0 -4.26752394e-15 6.00600601 -4.26752394e-15 18.018018 12.012012 18.018018 72.0720721 12.012012 72.0720721 0 60.0600601"></polygon>
                    <polygon id="Path" fill-opacity="0.05" fill="#000000" fill-rule="nonzero" points="0 -4.26752394e-15 6.00600601 -4.26752394e-15 18.018018 12.012012 12.012012 12.012012"></polygon>
                    <polygon id="Path" fill-opacity="0.1" fill="#000000" fill-rule="nonzero" points="0 -4.26752394e-15 12.012012 12.012012 12.012012 72.0720721 0 60.0600601"></polygon>
                    <path d="M12.012012,72.0720721 L12.012012,12.012012 L0,-4.26752394e-15 M12.012012,12.012012 L18.018018,12.012012" id="Shape" stroke="#6C8EBF"></path>
                </g>
                <g id="Group" transform="translate(264.864865, 23.687688)">
                    <polygon id="Path" stroke="#D79B00" fill="#FFE6CC" fill-rule="nonzero" points="0 -4.26752394e-15 6.00600601 -4.26752394e-15 18.018018 12.012012 18.018018 72.0720721 12.012012 72.0720721 0 60.0600601"></polygon>
                    <polygon id="Path" fill-opacity="0.05" fill="#000000" fill-rule="nonzero" points="0 -4.26752394e-15 6.00600601 -4.26752394e-15 18.018018 12.012012 12.012012 12.012012"></polygon>
                    <polygon id="Path" fill-opacity="0.1" fill="#000000" fill-rule="nonzero" points="0 -4.26752394e-15 12.012012 12.012012 12.012012 72.0720721 0 60.0600601"></polygon>
                    <path d="M12.012012,72.0720721 L12.012012,12.012012 L0,-4.26752394e-15 M12.012012,12.012012 L18.018018,12.012012" id="Shape" stroke="#D79B00"></path>
                </g>
                <g id="Group" transform="translate(89.489489, 0.192192)">
                    <polygon id="Path" stroke="#D79B00" fill="#FFE6CC" fill-rule="nonzero" points="0 0 6.00600601 0 18.018018 12.012012 18.018018 128.078078 12.012012 128.078078 0 116.066066"></polygon>
                    <polygon id="Path" fill-opacity="0.05" fill="#000000" fill-rule="nonzero" points="0 0 6.00600601 0 18.018018 12.012012 12.012012 12.012012"></polygon>
                    <polygon id="Path" fill-opacity="0.1" fill="#000000" fill-rule="nonzero" points="0 0 12.012012 12.012012 12.012012 128.078078 0 116.066066"></polygon>
                    <path d="M12.012012,128.078078 L12.012012,12.012012 L0,0 M12.012012,12.012012 L18.018018,12.012012" id="Shape" stroke="#D79B00"></path>
                </g>
                <g id="Group" transform="translate(416.816817, 36.600601)">
                    <polygon id="Path" stroke="#D79B00" fill="#FFE6CC" fill-rule="nonzero" points="0 -4.26752394e-15 6.00600601 -4.26752394e-15 18.018018 12.012012 18.018018 48.048048 12.012012 48.048048 0 36.036036"></polygon>
                    <polygon id="Path" fill-opacity="0.05" fill="#000000" fill-rule="nonzero" points="0 -4.26752394e-15 6.00600601 -4.26752394e-15 18.018018 12.012012 12.012012 12.012012"></polygon>
                    <polygon id="Path" fill-opacity="0.1" fill="#000000" fill-rule="nonzero" points="0 -4.26752394e-15 12.012012 12.012012 12.012012 48.048048 0 36.036036"></polygon>
                    <path d="M12.012012,48.048048 L12.012012,12.012012 L0,-4.26752394e-15 M12.012012,12.012012 L18.018018,12.012012" id="Shape" stroke="#D79B00"></path>
                </g>
                <g id="Group" transform="translate(162.762763, 12.240240)">
                    <polygon id="Path" stroke="#D79B00" fill="#FFE6CC" fill-rule="nonzero" points="0 -2.13376197e-15 6.00600601 -2.13376197e-15 18.018018 12.012012 18.018018 94.966967 12.012012 94.966967 0 82.954955"></polygon>
                    <polygon id="Path" fill-opacity="0.05" fill="#000000" fill-rule="nonzero" points="0 -2.13376197e-15 6.00600601 -2.13376197e-15 18.018018 12.012012 12.012012 12.012012"></polygon>
                    <polygon id="Path" fill-opacity="0.1" fill="#000000" fill-rule="nonzero" points="0 -2.13376197e-15 12.012012 12.012012 12.012012 94.966967 0 82.954955"></polygon>
                    <path d="M12.012012,94.966967 L12.012012,12.012012 L0,-2.13376197e-15 M12.012012,12.012012 L18.018018,12.012012" id="Shape" stroke="#D79B00"></path>
                </g>
                <g id="Group" transform="translate(509.909910, 44.372372)">
                    <polygon id="Path" stroke="#D79B00" fill="#FFE6CC" fill-rule="nonzero" points="0 0 6.00600601 0 18.018018 12.012012 18.018018 33.033033 12.012012 33.033033 0 21.021021"></polygon>
                    <polygon id="Path" fill-opacity="0.05" fill="#000000" fill-rule="nonzero" points="0 0 6.00600601 0 18.018018 12.012012 12.012012 12.012012"></polygon>
                    <polygon id="Path" fill-opacity="0.1" fill="#000000" fill-rule="nonzero" points="0 0 12.012012 12.012012 12.012012 33.033033 0 21.021021"></polygon>
                    <path d="M12.012012,33.033033 L12.012012,12.012012 L0,0 M12.012012,12.012012 L18.018018,12.012012" id="Shape" stroke="#D79B00"></path>
                </g>
                <g id="Group" transform="translate(154.954955, 12.240240)">
                    <polygon id="Path" stroke="#6C8EBF" fill="#DAE8FC" fill-rule="nonzero" points="0 -2.13376197e-15 6.00600601 -2.13376197e-15 18.018018 12.012012 18.018018 94.966967 12.012012 94.966967 0 82.954955"></polygon>
                    <polygon id="Path" fill-opacity="0.05" fill="#000000" fill-rule="nonzero" points="0 -2.13376197e-15 6.00600601 -2.13376197e-15 18.018018 12.012012 12.012012 12.012012"></polygon>
                    <polygon id="Path" fill-opacity="0.1" fill="#000000" fill-rule="nonzero" points="0 -2.13376197e-15 12.012012 12.012012 12.012012 94.966967 0 82.954955"></polygon>
                    <path d="M12.012012,94.966967 L12.012012,12.012012 L0,-2.13376197e-15 M12.012012,12.012012 L18.018018,12.012012" id="Shape" stroke="#6C8EBF"></path>
                </g>
                <g id="Group" transform="translate(257.057057, 23.687688)">
                    <polygon id="Path" stroke="#6C8EBF" fill="#DAE8FC" fill-rule="nonzero" points="0 -4.26752394e-15 6.00600601 -4.26752394e-15 18.018018 12.012012 18.018018 72.0720721 12.012012 72.0720721 0 60.0600601"></polygon>
                    <polygon id="Path" fill-opacity="0.05" fill="#000000" fill-rule="nonzero" points="0 -4.26752394e-15 6.00600601 -4.26752394e-15 18.018018 12.012012 12.012012 12.012012"></polygon>
                    <polygon id="Path" fill-opacity="0.1" fill="#000000" fill-rule="nonzero" points="0 -4.26752394e-15 12.012012 12.012012 12.012012 72.0720721 0 60.0600601"></polygon>
                    <path d="M12.012012,72.0720721 L12.012012,12.012012 L0,-4.26752394e-15 M12.012012,12.012012 L18.018018,12.012012" id="Shape" stroke="#6C8EBF"></path>
                </g>
                <g id="Group" transform="translate(409.009009, 36.600601)">
                    <polygon id="Path" stroke="#6C8EBF" fill="#DAE8FC" fill-rule="nonzero" points="0 -4.26752394e-15 6.00600601 -4.26752394e-15 18.018018 12.012012 18.018018 48.048048 12.012012 48.048048 0 36.036036"></polygon>
                    <polygon id="Path" fill-opacity="0.05" fill="#000000" fill-rule="nonzero" points="0 -4.26752394e-15 6.00600601 -4.26752394e-15 18.018018 12.012012 12.012012 12.012012"></polygon>
                    <polygon id="Path" fill-opacity="0.1" fill="#000000" fill-rule="nonzero" points="0 -4.26752394e-15 12.012012 12.012012 12.012012 48.048048 0 36.036036"></polygon>
                    <path d="M12.012012,48.048048 L12.012012,12.012012 L0,-4.26752394e-15 M12.012012,12.012012 L18.018018,12.012012" id="Shape" stroke="#6C8EBF"></path>
                </g>
                <g id="Group" transform="translate(502.102102, 44.222222)">
                    <polygon id="Path" stroke="#6C8EBF" fill="#DAE8FC" fill-rule="nonzero" points="0 0 6.00600601 0 18.018018 12.012012 18.018018 33.033033 12.012012 33.033033 0 21.021021"></polygon>
                    <polygon id="Path" fill-opacity="0.05" fill="#000000" fill-rule="nonzero" points="0 0 6.00600601 0 18.018018 12.012012 12.012012 12.012012"></polygon>
                    <polygon id="Path" fill-opacity="0.1" fill="#000000" fill-rule="nonzero" points="0 0 12.012012 12.012012 12.012012 33.033033 0 21.021021"></polygon>
                    <path d="M12.012012,33.033033 L12.012012,12.012012 L0,0 M12.012012,12.012012 L18.018018,12.012012" id="Shape" stroke="#6C8EBF"></path>
                </g>
                <g id="Group" transform="translate(600.000000, 54.132132)">
                    <polygon id="Path" stroke="#B85450" fill="#F8CECC" fill-rule="nonzero" points="0 0 11.4114114 0 17.4174174 6.00600601 17.4174174 16.3003003 6.00600601 16.3003003 0 10.2942943"></polygon>
                    <polygon id="Path" fill-opacity="0.05" fill="#000000" fill-rule="nonzero" points="0 0 11.4114114 0 17.4174174 6.00600601 6.00600601 6.00600601"></polygon>
                    <polygon id="Path" fill-opacity="0.1" fill="#000000" fill-rule="nonzero" points="0 0 6.00600601 6.00600601 6.00600601 16.3003003 0 10.2942943"></polygon>
                    <path d="M6.00600601,16.3003003 L6.00600601,6.00600601 L0,0 M6.00600601,6.00600601 L17.4174174,6.00600601" id="Shape" stroke="#B85450"></path>
                </g>
                <g id="Group" transform="translate(481.081081, 44.222222)">
                    <polygon id="Path" stroke="#B85450" fill="#F8CECC" fill-rule="nonzero" points="0 0 6.00600601 0 18.018018 12.012012 18.018018 33.033033 12.012012 33.033033 0 21.021021"></polygon>
                    <polygon id="Path" fill-opacity="0.05" fill="#000000" fill-rule="nonzero" points="0 0 6.00600601 0 18.018018 12.012012 12.012012 12.012012"></polygon>
                    <polygon id="Path" fill-opacity="0.1" fill="#000000" fill-rule="nonzero" points="0 0 12.012012 12.012012 12.012012 33.033033 0 21.021021"></polygon>
                    <path d="M12.012012,33.033033 L12.012012,12.012012 L0,0 M12.012012,12.012012 L18.018018,12.012012" id="Shape" stroke="#B85450"></path>
                </g>
                <g id="Group" transform="translate(631.831832, 57.285285)">
                    <polygon id="Path" stroke="#82B366" fill="#D5E8D4" fill-rule="nonzero" points="0 0 25.2252252 0 29.4294294 4.2042042 29.4294294 10.2882883 4.2042042 10.2882883 0 6.08408408"></polygon>
                    <polygon id="Path" fill-opacity="0.05" fill="#000000" fill-rule="nonzero" points="0 0 25.2252252 0 29.4294294 4.2042042 4.2042042 4.2042042"></polygon>
                    <polygon id="Path" fill-opacity="0.1" fill="#000000" fill-rule="nonzero" points="0 0 4.2042042 4.2042042 4.2042042 10.2882883 0 6.08408408"></polygon>
                    <path d="M4.2042042,10.2882883 L4.2042042,4.2042042 L0,0 M4.2042042,4.2042042 L29.4294294,4.2042042" id="Shape" stroke="#82B366"></path>
                </g>
                <g id="Group" transform="translate(754.954955, 57.285285)">
                    <polygon id="Path" stroke="#82B366" fill="#D5E8D4" fill-rule="nonzero" points="0 0 13.8138138 0 18.018018 4.2042042 18.018018 10.2882883 4.2042042 10.2882883 0 6.08408408"></polygon>
                    <polygon id="Path" fill-opacity="0.05" fill="#000000" fill-rule="nonzero" points="0 0 13.8138138 0 18.018018 4.2042042 4.2042042 4.2042042"></polygon>
                    <polygon id="Path" fill-opacity="0.1" fill="#000000" fill-rule="nonzero" points="0 0 4.2042042 4.2042042 4.2042042 10.2882883 0 6.08408408"></polygon>
                    <path d="M4.2042042,10.2882883 L4.2042042,4.2042042 L0,0 M4.2042042,4.2042042 L18.018018,4.2042042" id="Shape" stroke="#82B366"></path>
                </g>
                <g id="Group" transform="translate(781.981982, 57.141141)">
                    <polygon id="Path" stroke="#0012B3" fill="#C5C6E8" fill-rule="nonzero" points="0 0 13.8138138 0 18.018018 4.2042042 18.018018 10.2882883 4.2042042 10.2882883 0 6.08408408"></polygon>
                    <polygon id="Path" fill-opacity="0.05" fill="#000000" fill-rule="nonzero" points="0 0 13.8138138 0 18.018018 4.2042042 4.2042042 4.2042042"></polygon>
                    <polygon id="Path" fill-opacity="0.1" fill="#000000" fill-rule="nonzero" points="0 0 4.2042042 4.2042042 4.2042042 10.2882883 0 6.08408408"></polygon>
                    <path d="M4.2042042,10.2882883 L4.2042042,4.2042042 L0,0 M4.2042042,4.2042042 L18.018018,4.2042042" id="Shape" stroke="#0012B3"></path>
                </g>
                <g id="Group" transform="translate(192.792793, 12.240240)">
                    <polygon id="Path" stroke="#D79B00" fill="#FFE6CC" fill-rule="nonzero" points="0 -2.13376197e-15 6.00600601 -2.13376197e-15 18.018018 12.012012 18.018018 96.018018 12.012012 96.018018 0 84.006006"></polygon>
                    <polygon id="Path" fill-opacity="0.05" fill="#000000" fill-rule="nonzero" points="0 -2.13376197e-15 6.00600601 -2.13376197e-15 18.018018 12.012012 12.012012 12.012012"></polygon>
                    <polygon id="Path" fill-opacity="0.1" fill="#000000" fill-rule="nonzero" points="0 -2.13376197e-15 12.012012 12.012012 12.012012 96.018018 0 84.006006"></polygon>
                    <path d="M12.012012,96.018018 L12.012012,12.012012 L0,-2.13376197e-15 M12.012012,12.012012 L18.018018,12.012012" id="Shape" stroke="#D79B00"></path>
                </g>
                <g id="Group" transform="translate(184.984985, 12.240240)">
                    <polygon id="Path" stroke="#6C8EBF" fill="#DAE8FC" fill-rule="nonzero" points="0 -2.13376197e-15 6.00600601 -2.13376197e-15 18.018018 12.012012 18.018018 96.018018 12.012012 96.018018 0 84.006006"></polygon>
                    <polygon id="Path" fill-opacity="0.05" fill="#000000" fill-rule="nonzero" points="0 -2.13376197e-15 6.00600601 -2.13376197e-15 18.018018 12.012012 12.012012 12.012012"></polygon>
                    <polygon id="Path" fill-opacity="0.1" fill="#000000" fill-rule="nonzero" points="0 -2.13376197e-15 12.012012 12.012012 12.012012 96.018018 0 84.006006"></polygon>
                    <path d="M12.012012,96.018018 L12.012012,12.012012 L0,-2.13376197e-15 M12.012012,12.012012 L18.018018,12.012012" id="Shape" stroke="#6C8EBF"></path>
                </g>
                <g id="Group" transform="translate(131.531532, 12.240240)">
                    <polygon id="Path" stroke="#B85450" fill="#F8CECC" fill-rule="nonzero" points="0 -2.13376197e-15 6.00600601 -2.13376197e-15 18.018018 12.012012 18.018018 96.018018 12.012012 96.018018 0 84.006006"></polygon>
                    <polygon id="Path" fill-opacity="0.05" fill="#000000" fill-rule="nonzero" points="0 -2.13376197e-15 6.00600601 -2.13376197e-15 18.018018 12.012012 12.012012 12.012012"></polygon>
                    <polygon id="Path" fill-opacity="0.1" fill="#000000" fill-rule="nonzero" points="0 -2.13376197e-15 12.012012 12.012012 12.012012 96.018018 0 84.006006"></polygon>
                    <path d="M12.012012,96.018018 L12.012012,12.012012 L0,-2.13376197e-15 M12.012012,12.012012 L18.018018,12.012012" id="Shape" stroke="#B85450"></path>
                </g>
                <g id="Group" transform="translate(81.681682, 0.192192)">
                    <polygon id="Path" stroke="#6C8EBF" fill="#DAE8FC" fill-rule="nonzero" points="0 0 6.00600601 0 18.018018 12.012012 18.018018 128.078078 12.012012 128.078078 0 116.066066"></polygon>
                    <polygon id="Path" fill-opacity="0.05" fill="#000000" fill-rule="nonzero" points="0 0 6.00600601 0 18.018018 12.012012 12.012012 12.012012"></polygon>
                    <polygon id="Path" fill-opacity="0.1" fill="#000000" fill-rule="nonzero" points="0 0 12.012012 12.012012 12.012012 128.078078 0 116.066066"></polygon>
                    <path d="M12.012012,128.078078 L12.012012,12.012012 L0,0 M12.012012,12.012012 L18.018018,12.012012" id="Shape" stroke="#6C8EBF"></path>
                </g>
                <g id="Group" transform="translate(446.846847, 38.258258)">
                    <polygon id="Path" stroke="#D79B00" fill="#FFE6CC" fill-rule="nonzero" points="0 4.26752394e-15 6.00600601 4.26752394e-15 18.018018 12.012012 18.018018 48.048048 12.012012 48.048048 0 36.036036"></polygon>
                    <polygon id="Path" fill-opacity="0.05" fill="#000000" fill-rule="nonzero" points="0 4.26752394e-15 6.00600601 4.26752394e-15 18.018018 12.012012 12.012012 12.012012"></polygon>
                    <polygon id="Path" fill-opacity="0.1" fill="#000000" fill-rule="nonzero" points="0 4.26752394e-15 12.012012 12.012012 12.012012 48.048048 0 36.036036"></polygon>
                    <path d="M12.012012,48.048048 L12.012012,12.012012 L0,4.26752394e-15 M12.012012,12.012012 L18.018018,12.012012" id="Shape" stroke="#D79B00"></path>
                </g>
                <g id="Group" transform="translate(439.039039, 38.258258)">
                    <polygon id="Path" stroke="#6C8EBF" fill="#DAE8FC" fill-rule="nonzero" points="0 4.26752394e-15 6.00600601 4.26752394e-15 18.018018 12.012012 18.018018 48.048048 12.012012 48.048048 0 36.036036"></polygon>
                    <polygon id="Path" fill-opacity="0.05" fill="#000000" fill-rule="nonzero" points="0 4.26752394e-15 6.00600601 4.26752394e-15 18.018018 12.012012 12.012012 12.012012"></polygon>
                    <polygon id="Path" fill-opacity="0.1" fill="#000000" fill-rule="nonzero" points="0 4.26752394e-15 12.012012 12.012012 12.012012 48.048048 0 36.036036"></polygon>
                    <path d="M12.012012,48.048048 L12.012012,12.012012 L0,4.26752394e-15 M12.012012,12.012012 L18.018018,12.012012" id="Shape" stroke="#6C8EBF"></path>
                </g>
                <g id="Group" transform="translate(386.786787, 36.600601)">
                    <polygon id="Path" stroke="#D79B00" fill="#FFE6CC" fill-rule="nonzero" points="0 -4.26752394e-15 6.00600601 -4.26752394e-15 18.018018 12.012012 18.018018 48.048048 12.012012 48.048048 0 36.036036"></polygon>
                    <polygon id="Path" fill-opacity="0.05" fill="#000000" fill-rule="nonzero" points="0 -4.26752394e-15 6.00600601 -4.26752394e-15 18.018018 12.012012 12.012012 12.012012"></polygon>
                    <polygon id="Path" fill-opacity="0.1" fill="#000000" fill-rule="nonzero" points="0 -4.26752394e-15 12.012012 12.012012 12.012012 48.048048 0 36.036036"></polygon>
                    <path d="M12.012012,48.048048 L12.012012,12.012012 L0,-4.26752394e-15 M12.012012,12.012012 L18.018018,12.012012" id="Shape" stroke="#D79B00"></path>
                </g>
                <g id="Group" transform="translate(378.978979, 36.600601)">
                    <polygon id="Path" stroke="#6C8EBF" fill="#DAE8FC" fill-rule="nonzero" points="0 -4.26752394e-15 6.00600601 -4.26752394e-15 18.018018 12.012012 18.018018 48.048048 12.012012 48.048048 0 36.036036"></polygon>
                    <polygon id="Path" fill-opacity="0.05" fill="#000000" fill-rule="nonzero" points="0 -4.26752394e-15 6.00600601 -4.26752394e-15 18.018018 12.012012 12.012012 12.012012"></polygon>
                    <polygon id="Path" fill-opacity="0.1" fill="#000000" fill-rule="nonzero" points="0 -4.26752394e-15 12.012012 12.012012 12.012012 48.048048 0 36.036036"></polygon>
                    <path d="M12.012012,48.048048 L12.012012,12.012012 L0,-4.26752394e-15 M12.012012,12.012012 L18.018018,12.012012" id="Shape" stroke="#6C8EBF"></path>
                </g>
                <g id="Group" transform="translate(59.459459, 0.192192)">
                    <polygon id="Path" stroke="#D79B00" fill="#FFE6CC" fill-rule="nonzero" points="0 0 6.00600601 0 18.018018 12.012012 18.018018 126.054054 12.012012 126.054054 0 114.042042"></polygon>
                    <polygon id="Path" fill-opacity="0.05" fill="#000000" fill-rule="nonzero" points="0 0 6.00600601 0 18.018018 12.012012 12.012012 12.012012"></polygon>
                    <polygon id="Path" fill-opacity="0.1" fill="#000000" fill-rule="nonzero" points="0 0 12.012012 12.012012 12.012012 126.054054 0 114.042042"></polygon>
                    <path d="M12.012012,126.054054 L12.012012,12.012012 L0,0 M12.012012,12.012012 L18.018018,12.012012" id="Shape" stroke="#D79B00"></path>
                </g>
                <g id="Group" transform="translate(51.651652, 0.192192)">
                    <polygon id="Path" stroke="#6C8EBF" fill="#DAE8FC" fill-rule="nonzero" points="0 0 6.00600601 0 18.018018 12.012012 18.018018 126.054054 12.012012 126.054054 0 114.042042"></polygon>
                    <polygon id="Path" fill-opacity="0.05" fill="#000000" fill-rule="nonzero" points="0 0 6.00600601 0 18.018018 12.012012 12.012012 12.012012"></polygon>
                    <polygon id="Path" fill-opacity="0.1" fill="#000000" fill-rule="nonzero" points="0 0 12.012012 12.012012 12.012012 126.054054 0 114.042042"></polygon>
                    <path d="M12.012012,126.054054 L12.012012,12.012012 L0,0 M12.012012,12.012012 L18.018018,12.012012" id="Shape" stroke="#6C8EBF"></path>
                </g>
                <g id="Group" transform="translate(235.435435, 23.687688)">
                    <polygon id="Path" stroke="#B85450" fill="#F8CECC" fill-rule="nonzero" points="0 -4.26752394e-15 6.00600601 -4.26752394e-15 18.018018 12.012012 18.018018 72.0720721 12.012012 72.0720721 0 60.0600601"></polygon>
                    <polygon id="Path" fill-opacity="0.05" fill="#000000" fill-rule="nonzero" points="0 -4.26752394e-15 6.00600601 -4.26752394e-15 18.018018 12.012012 12.012012 12.012012"></polygon>
                    <polygon id="Path" fill-opacity="0.1" fill="#000000" fill-rule="nonzero" points="0 -4.26752394e-15 12.012012 12.012012 12.012012 72.0720721 0 60.0600601"></polygon>
                    <path d="M12.012012,72.0720721 L12.012012,12.012012 L0,-4.26752394e-15 M12.012012,12.012012 L18.018018,12.012012" id="Shape" stroke="#B85450"></path>
                </g>
                <g id="Group" transform="translate(356.156156, 36.600601)">
                    <polygon id="Path" stroke="#B85450" fill="#F8CECC" fill-rule="nonzero" points="0 -4.26752394e-15 6.00600601 -4.26752394e-15 18.018018 12.012012 18.018018 48.048048 12.012012 48.048048 0 36.036036"></polygon>
                    <polygon id="Path" fill-opacity="0.05" fill="#000000" fill-rule="nonzero" points="0 -4.26752394e-15 6.00600601 -4.26752394e-15 18.018018 12.012012 12.012012 12.012012"></polygon>
                    <polygon id="Path" fill-opacity="0.1" fill="#000000" fill-rule="nonzero" points="0 -4.26752394e-15 12.012012 12.012012 12.012012 48.048048 0 36.036036"></polygon>
                    <path d="M12.012012,48.048048 L12.012012,12.012012 L0,-4.26752394e-15 M12.012012,12.012012 L18.018018,12.012012" id="Shape" stroke="#B85450"></path>
                </g>
                <g id="Group">
                    <polygon id="Path" stroke="#000033" fill="#F3D1FF" fill-rule="nonzero" points="0 -4.10082378e-15 6.00600601 -4.10082378e-15 18.018018 12.012012 18.018018 126.054054 12.012012 126.054054 0 114.042042"></polygon>
                    <polygon id="Path" fill-opacity="0.05" fill="#000000" fill-rule="nonzero" points="0 -4.10082378e-15 6.00600601 -4.10082378e-15 18.018018 12.012012 12.012012 12.012012"></polygon>
                    <polygon id="Path" fill-opacity="0.1" fill="#000000" fill-rule="nonzero" points="0 -4.10082378e-15 12.012012 12.012012 12.012012 126.054054 0 114.042042"></polygon>
                    <path d="M12.012012,126.054054 L12.012012,12.012012 L0,-4.10082378e-15 M12.012012,12.012012 L18.018018,12.012012" id="Shape" stroke="#000033"></path>
                </g>
                <g id="Group" transform="translate(720.120120, 57.285285)">
                    <polygon id="Path" stroke="#D79B00" fill="#FFE6CC" fill-rule="nonzero" points="0 0 25.2252252 0 29.4294294 4.2042042 29.4294294 10.2882883 4.2042042 10.2882883 0 6.08408408"></polygon>
                    <polygon id="Path" fill-opacity="0.05" fill="#000000" fill-rule="nonzero" points="0 0 25.2252252 0 29.4294294 4.2042042 4.2042042 4.2042042"></polygon>
                    <polygon id="Path" fill-opacity="0.1" fill="#000000" fill-rule="nonzero" points="0 0 4.2042042 4.2042042 4.2042042 10.2882883 0 6.08408408"></polygon>
                    <path d="M4.2042042,10.2882883 L4.2042042,4.2042042 L0,0 M4.2042042,4.2042042 L29.4294294,4.2042042" id="Shape" stroke="#D79B00"></path>
                </g>
                <g id="Group" transform="translate(693.093093, 57.285285)">
                    <polygon id="Path" stroke="#82B366" fill="#D5E8D4" fill-rule="nonzero" points="0 0 25.2252252 0 29.4294294 4.2042042 29.4294294 10.2882883 4.2042042 10.2882883 0 6.08408408"></polygon>
                    <polygon id="Path" fill-opacity="0.05" fill="#000000" fill-rule="nonzero" points="0 0 25.2252252 0 29.4294294 4.2042042 4.2042042 4.2042042"></polygon>
                    <polygon id="Path" fill-opacity="0.1" fill="#000000" fill-rule="nonzero" points="0 0 4.2042042 4.2042042 4.2042042 10.2882883 0 6.08408408"></polygon>
                    <path d="M4.2042042,10.2882883 L4.2042042,4.2042042 L0,0 M4.2042042,4.2042042 L29.4294294,4.2042042" id="Shape" stroke="#82B366"></path>
                </g>
                <g id="Group" transform="translate(324.324324, 23.687688)">
                    <polygon id="Path" stroke="#D79B00" fill="#FFE6CC" fill-rule="nonzero" points="0 -4.26752394e-15 6.00600601 -4.26752394e-15 18.018018 12.012012 18.018018 72.0720721 12.012012 72.0720721 0 60.0600601"></polygon>
                    <polygon id="Path" fill-opacity="0.05" fill="#000000" fill-rule="nonzero" points="0 -4.26752394e-15 6.00600601 -4.26752394e-15 18.018018 12.012012 12.012012 12.012012"></polygon>
                    <polygon id="Path" fill-opacity="0.1" fill="#000000" fill-rule="nonzero" points="0 -4.26752394e-15 12.012012 12.012012 12.012012 72.0720721 0 60.0600601"></polygon>
                    <path d="M12.012012,72.0720721 L12.012012,12.012012 L0,-4.26752394e-15 M12.012012,12.012012 L18.018018,12.012012" id="Shape" stroke="#D79B00"></path>
                </g>
                <g id="Group" transform="translate(316.516517, 23.687688)">
                    <polygon id="Path" stroke="#6C8EBF" fill="#DAE8FC" fill-rule="nonzero" points="0 -4.26752394e-15 6.00600601 -4.26752394e-15 18.018018 12.012012 18.018018 72.0720721 12.012012 72.0720721 0 60.0600601"></polygon>
                    <polygon id="Path" fill-opacity="0.05" fill="#000000" fill-rule="nonzero" points="0 -4.26752394e-15 6.00600601 -4.26752394e-15 18.018018 12.012012 12.012012 12.012012"></polygon>
                    <polygon id="Path" fill-opacity="0.1" fill="#000000" fill-rule="nonzero" points="0 -4.26752394e-15 12.012012 12.012012 12.012012 72.0720721 0 60.0600601"></polygon>
                    <path d="M12.012012,72.0720721 L12.012012,12.012012 L0,-4.26752394e-15 M12.012012,12.012012 L18.018018,12.012012" id="Shape" stroke="#6C8EBF"></path>
                </g>
            </g>
        </g>
    </g>
</svg>